<svg width="97" height="23" viewBox="0 0 97 23" fill="none" xmlns="http://www.w3.org/2000/svg">
<path d="M95.0504 4.06917C96.1272 4.06917 97 3.15825 97 2.03458C97 0.910914 96.1272 0 95.0504 0C93.9737 0 93.1009 0.910914 93.1009 2.03458C93.1009 3.15825 93.9737 4.06917 95.0504 4.06917Z" fill="#F2F827"/>
<path d="M25.8258 15.8745C25.8258 16.4076 25.8258 16.7955 25.8258 17.2086C24.7107 17.2086 23.6249 17.2086 22.499 17.2086C22.499 11.5989 22.499 5.98351 22.499 0.329102C23.5848 0.329102 24.6812 0.329102 25.8258 0.329102C25.8258 2.67348 25.8258 5.0346 25.8258 7.56318C26.588 6.42727 27.4786 5.74628 28.6633 5.56767C31.2226 5.18252 33.116 6.49704 33.6696 9.12609C34.044 10.9095 33.9878 12.6985 33.3246 14.4149C32.3164 17.03 29.3559 18.2747 27.1068 17.0607C26.6228 16.8011 26.2671 16.3909 25.8258 15.8745ZM30.3748 11.3114C30.3748 11.0797 30.3936 10.8481 30.3722 10.6192C30.2358 9.14005 29.4683 8.26649 28.2702 8.21346C27.0427 8.16043 26.0532 9.01725 25.8553 10.3681C25.7376 11.183 25.7483 12.0147 25.8472 12.8324C25.9649 13.8065 26.7298 14.627 27.5641 14.7665C28.6232 14.9424 29.5164 14.4651 29.9817 13.466C30.3 12.7878 30.3936 12.0594 30.3748 11.3114Z" fill="white"/>
<path d="M90.6939 17.2119C89.5975 17.2119 88.5759 17.2119 87.5088 17.2119C87.5088 16.7067 87.5088 16.2043 87.5088 15.6713C87.2521 15.7383 87.2066 15.9532 87.0997 16.0927C85.7251 17.904 82.7084 18.0073 81.4221 16.2825C79.9352 14.2898 80.815 11.3286 83.147 10.522C84.4334 10.0783 85.7893 10.0615 87.1104 9.82988C87.2173 9.81034 87.3243 9.79918 87.4233 9.78243C87.6238 8.73584 87.0168 7.96833 86.0005 7.91531C84.5189 7.83716 83.1551 8.20556 81.8179 9.1154C81.8179 8.20835 81.8152 7.39619 81.8206 6.58404C81.8206 6.44728 81.9382 6.39704 82.0399 6.35518C83.8985 5.59884 85.8026 5.20811 87.7816 5.73559C89.4049 6.16819 90.4426 7.42969 90.5896 9.24658C90.8116 11.8756 90.6324 14.513 90.6939 17.2119ZM87.4634 11.8003C86.5407 11.9789 85.6288 11.951 84.773 12.2664C84.1338 12.5036 83.8263 13.0032 83.8664 13.7148C83.9039 14.3763 84.2676 14.7921 84.8586 14.9345C85.6074 15.1131 86.3 14.9484 86.8563 14.3512C87.5142 13.6423 87.5409 12.7687 87.4634 11.8003Z" fill="#F2F827"/>
<path d="M59.4018 8.96704C57.2731 7.88416 55.5749 8.00696 54.5587 9.27404C53.6975 10.3485 53.628 12.4306 54.4142 13.5972C55.3369 14.9647 56.781 15.1015 59.4018 14.0409C59.4018 14.9089 59.4072 16.8681 59.4072 16.8681C56.4574 18.7771 51.5795 16.9658 50.6488 13.5162C49.8412 10.5216 50.9323 7.50459 53.4194 6.19007C55.2165 5.23836 57.4977 5.33046 59.4072 5.89702C59.4072 5.89702 59.4018 8.03487 59.4018 8.96704Z" fill="white"/>
<path d="M43.1821 5.70768C43.1821 6.7766 43.1821 7.82878 43.1821 8.90607C42.8719 8.81955 42.5671 8.69396 42.2515 8.64931C40.7351 8.43999 39.6494 9.33867 39.5023 10.9769C39.3338 12.8524 39.4675 14.7335 39.4328 16.6146C39.4301 16.8072 39.4328 16.9998 39.4328 17.2119C38.2935 17.2119 37.2077 17.2119 36.0952 17.2119C36.0952 13.4106 36.0952 9.62334 36.0952 5.80536C37.181 5.80536 38.2775 5.80536 39.4087 5.80536C39.4087 6.44448 39.4087 7.08081 39.4087 7.71714C39.8179 7.01104 40.211 6.30772 40.925 5.9142C41.6337 5.52627 42.3905 5.46207 43.1821 5.70768Z" fill="white"/>
<path d="M48.2018 17.2118C47.108 17.2118 46.0249 17.2118 44.899 17.2118C44.899 13.4105 44.899 9.61486 44.899 5.79688C45.9928 5.79688 47.0813 5.79688 48.2018 5.79688C48.2018 9.59253 48.2018 13.3882 48.2018 17.2118Z" fill="white"/>
<path d="M96.6791 17.2084C95.5773 17.2084 94.4969 17.2084 93.3843 17.2084C93.3843 13.4044 93.3843 9.61988 93.3843 5.80469C94.4728 5.80469 95.5559 5.80469 96.6791 5.80469C96.6791 9.59476 96.6791 13.3876 96.6791 17.2084Z" fill="#F2F827"/>
<path d="M20.2499 9.24625C20.1028 7.42935 19.0652 6.16786 17.4419 5.73526C15.4629 5.21057 13.278 5.33058 10.6652 6.99118C9.82275 7.52704 9.03115 7.8452 8.29572 7.9987C8.29572 6.00877 8.30374 4.40957 8.32514 4.06629C8.38397 3.12575 8.88139 2.72386 9.79066 2.7099C10.2506 2.70153 10.6839 2.83549 11.1546 2.94434V0.245518C10.3924 -0.0168292 9.61683 -0.022411 8.84395 0.0389893C6.46916 0.220399 4.95015 1.92007 4.94748 4.37887C4.94748 4.61889 4.95015 5.90551 4.95283 7.59402C3.03 6.66743 1.97364 4.8338 1.97364 4.8338L0 6.12599C0 6.12599 1.66075 9.27415 4.95818 10.318C4.96085 13.1005 4.9662 16.0449 4.9662 17.2032H8.30107C8.30107 16.1091 8.29572 13.3042 8.29304 10.5608C9.53392 10.371 10.9139 9.87141 12.4329 8.93087C13.8583 8.0601 14.9467 7.87869 15.6581 7.91497C16.6743 7.968 17.2787 8.73551 17.0808 9.7821C16.9819 9.79885 16.8722 9.81001 16.7653 9.82955C15.4442 10.0612 14.0856 10.0779 12.8019 10.5217C10.4726 11.3255 9.59008 14.2867 11.077 16.2822C12.3633 18.0042 15.38 17.9009 16.7546 16.0924C16.8615 15.95 16.907 15.7379 17.1637 15.671V17.2115H20.3488C20.2847 14.5155 20.4665 11.8753 20.2499 9.24625ZM16.5112 14.3508C15.9549 14.9481 15.2623 15.1128 14.5135 14.9341C13.9225 14.7946 13.5588 14.3788 13.5213 13.7173C13.4812 13.0028 13.7888 12.5033 14.4279 12.266C15.281 11.9507 16.1956 11.9786 17.1183 11.7999C17.1958 12.7712 17.1664 13.6419 16.5112 14.3508Z" fill="white"/>
<path d="M46.5517 4.06917C47.6285 4.06917 48.5013 3.15825 48.5013 2.03458C48.5013 0.910914 47.6285 0 46.5517 0C45.475 0 44.6022 0.910914 44.6022 2.03458C44.6022 3.15825 45.475 4.06917 46.5517 4.06917Z" fill="white"/>
<path d="M68.8716 8.89216L61.6001 0.524971L62.0975 0.00585938L70.1151 7.59438L68.8716 8.89216Z" fill="#F2F827"/>
<path d="M68.8716 13.4717L59.4072 2.81599L59.9046 2.29688L70.1151 12.174L68.8716 13.4717Z" fill="#F2F827"/>
<path d="M71.9765 14.1143L79.2452 22.4814L78.7478 23.0006L70.7302 15.4148L71.9765 14.1143Z" fill="#F2F827"/>
<path d="M71.9765 9.53418L81.4408 20.1927L80.9434 20.7118L70.7302 10.8347L71.9765 9.53418Z" fill="#F2F827"/>
<path d="M72.9258 9.8826L80.9434 2.29688L81.4409 2.81599L74.1694 11.1832L72.9258 9.8826Z" fill="white"/>
<path d="M68.5373 9.88294L78.7478 0.00585938L79.2452 0.524971L69.7808 11.1835L68.5373 9.88294Z" fill="white"/>
<path d="M67.9222 13.123L59.9046 20.7115L59.4072 20.1924L66.676 11.8252L67.9222 13.123Z" fill="white"/>
<path d="M72.3107 13.123L62.0975 23.0001L61.6001 22.4809L71.0645 11.8252L72.3107 13.123Z" fill="white"/>
</svg>
